# xmcd
#
# Track frame offsets: 
#        150
#        12880
#        28822
#        42475
#        61876
#        77803
#        97243
#        112136
#        127441
#        140726
#        151348
#        162112
#        175528
#        190843
#        211289
#        223919
#        240851
#        253779
#        265902
#        278982
#
# Disc length: 3948 seconds
#
# Revision: 0
# Processed by: cddbd v1.5.2PL0 Copyright (c) Steve Scherf et al.
# Submitted via: ExactAudioCopy v1.1
#
DISCID=2d0f6a14
DTITLE=Various Artist - De Pré Historie - De Jaren '70 Vol. 2 - De Ultieme 10
DTITLE=CD Collectie - 1978
DYEAR=2019
DGENRE=Top 40
TTITLE0=John Travolta and Olivia Newton - John - You're The One That I W
TTITLE0=ant
TTITLE1=The Jacksons - Blame It On The Boogie
TTITLE2=The Michael Zager Band - Let's All Chant
TTITLE3=Boney M - Rivers Of Babylon
TTITLE4=La Bionda - One For You, One For Me
TTITLE5=Karen Young - Hot Shot
TTITLE6=Donna Summer - Last Dance
TTITLE7=Frankie Valli - Grease
TTITLE8=Plastic Bertrand - Ca Plane Pour Moi
TTITLE9=Robert Gordon With Link Wray - Red Hot
TTITLE10=Ruth McKenny and Banny Bright Orchestra - Rocking In The Street
TTITLE11=Izhar Cohen and The Alpha - Beta - A-Ba-Ni-Bi
TTITLE12=Clout - Substitute
TTITLE13=Exile - Kiss You All Over
TTITLE14=The Surfers - Windsurfin'
TTITLE15=Third World - Now That We Found Love
TTITLE16=Brighouse and Rastrick Brass Band - The Floral Dance
TTITLE17=Blondie - (I'm Always Touched By Your) Presence, Dear
TTITLE18=Johnny Mathis and Deniece Williams - Too Much, Too Little, Too 
TTITLE18=Late
TTITLE19=Abba - Thank You For The Music
EXTD=
EXTT0=
EXTT1=
EXTT2=
EXTT3=
EXTT4=
EXTT5=
EXTT6=
EXTT7=
EXTT8=
EXTT9=
EXTT10=
EXTT11=
EXTT12=
EXTT13=
EXTT14=
EXTT15=
EXTT16=
EXTT17=
EXTT18=
EXTT19=
PLAYORDER=
